HIERARCHY
ROOT ui
{
	 OFFSET 0 0 0
	 CHANNELS 3 XPosition YPosition Z Position
	 EndSite
	 {
	 OFFSET 0 -1 0
	 }
}
ROOT li
{
	 OFFSET 0 0 0
	 CHANNELS 3 XPosition YPosition Z Position
	 EndSite
	 {
	 OFFSET 0 -1 0
	 }
}
ROOT ul
{
	 OFFSET 0 0 0
	 CHANNELS 3 XPosition YPosition Z Position
	 EndSite
	 {
	 OFFSET 0 -1 0
	 }
}
ROOT ll
{
	 OFFSET 0 0 0
	 CHANNELS 3 XPosition YPosition Z Position
	 EndSite
	 {
	 OFFSET 0 -1 0
	 }
}
ROOT tt
{
	 OFFSET 0 0 0
	 CHANNELS 3 XPosition YPosition Z Position
	 EndSite
	 {
	 OFFSET 0 -1 0
	 }
}
ROOT tb
{
	 OFFSET 0 0 0
	 CHANNELS 3 XPosition YPosition Z Position
	 EndSite
	 {
	 OFFSET 0 -1 0
	 }
}
ROOT td
{
	 OFFSET 0 0 0
	 CHANNELS 3 XPosition YPosition Z Position
	 EndSite
	 {
	 OFFSET 0 -1 0
	 }
}
ROOT v
{
	 OFFSET 0 0 0
	 CHANNELS 3 XPosition YPosition Z Position
	 EndSite
	 {
	 OFFSET 0 -1 0
	 }
}
ROOT bn
{
	 OFFSET 0 0 0
	 CHANNELS 3 XPosition YPosition Z Position
	 EndSite
	 {
	 OFFSET 0 -1 0
	 }
}
MOTION
Frames: 24
Frame Time: 0.002
-0.0040666661262512204	0.004846508026123047	0		0.595046630859375	-2.61772509765625	0		-0.9641728515625	0.32661376953125	0		-0.3775815124511719	-2.7918642578125	0		2.22581396484375	-1.3345404052734375	0		3.71309521484375	-0.7620770263671875	0		5.53937646484375	-0.4073312683105469	0		5.8399208984375	0.23497911071777344	0		-0.4979703063964844	5.830591796875	0		
0.010654268264770507	-0.009340653419494629	0		0.5730123291015625	-2.610564453125	0		-0.964330322265625	0.3265433959960938	0		-0.35239596557617187	-2.761151611328125	0		2.2187626953125	-1.32648388671875	0		3.71295947265625	-0.7620543823242187	0		5.53923388671875	-0.4072862243652344	0		5.83981494140625	0.23509210205078124	0		-0.34409805297851564	5.84512890625	0		
-0.008349852561950684	0.0017444839477539062	0		0.5969190673828125	-2.6158564453125	0		-0.9324801025390625	0.32214462280273437	0		-0.3492127380371094	-2.73627490234375	0		2.218687255859375	-1.3265216064453125	0		3.72586181640625	-0.7631768188476562	0		5.55012841796875	-0.40836544799804686	0		5.8468681640625	0.23327993774414063	0		-0.47950894165039065	5.82626025390625	0		
-0.00840815544128418	0.0016192400455474854	0		0.5630534057617187	-2.60165966796875	0		-0.9285103149414062	0.325960205078125	0		-0.3668135986328125	-2.693247314453125	0		2.212734375	-1.3185379638671875	0		3.690869140625	-0.7578933715820313	0		5.54602587890625	-0.4143344421386719	0		5.83970263671875	0.23520042419433593	0		-0.35961624145507814	5.836037109375	0		
0.0014999239444732665	-0.007635558128356933	0		0.5990122680664063	-2.613133544921875	0		-0.9536094970703125	0.3169965515136719	0		-0.37263400268554686	-2.6803681640625	0		2.217822509765625	-1.311688720703125	0		3.70979736328125	-0.7671300659179687	0		5.55008056640625	-0.4084053955078125	0		5.8396982421875	0.2351875457763672	0		-0.4978497314453125	5.8291083984375	0		
0.016584386825561525	-0.002976301908493042	0		0.5542548217773438	-2.598917724609375	0		-0.9075895385742188	0.31534982299804687	0		-0.33916778564453126	-2.641883056640625	0		2.222962646484375	-1.3048759765625	0		3.71306591796875	-0.74425732421875	0		5.54422265625	-0.3984184265136719	0		5.8547001953125	0.23306558227539062	0		-0.4970040283203125	5.82587939453125	0		
-0.0012245689630508423	0.007937873840332031	0		0.5984772338867187	-2.59354296875	0		-0.9174981079101563	0.3161646728515625	0		-0.37968072509765627	-2.6067744140625	0		2.209228759765625	-1.2899310302734375	0		3.698126953125	-0.75025732421875	0		5.53944287109375	-0.385474609375	0		5.8547685546875	0.23294595336914062	0		-0.4650094909667969	5.834330078125	0		
0.010757266998291016	-0.010457738876342774	0		0.5707047119140625	-2.593562744140625	0		-0.9173648681640625	0.31584619140625	0		-0.3442766418457031	-2.58738916015625	0		2.20941357421875	-1.2901494140625	0		3.673447021484375	-0.7332053833007812	0		5.5516162109375	-0.383716064453125	0		5.84142431640625	0.26074392700195315	0		-0.34495944213867186	5.84395361328125	0		
-0.007950119018554688	3.8030099868774413E-4	0		0.5620664672851563	-2.584794677734375	0		-0.9531805419921875	0.3158045959472656	0		-0.37173635864257815	-2.558483642578125	0		2.214712890625	-1.283450439453125	0		3.679593994140625	-0.7414652709960937	0		5.54470703125	-0.3968201904296875	0		5.8415654296875	0.2605140686035156	0		-0.4650565185546875	5.83367919921875	0		
-0.007708332061767578	7.644999772310256E-6	0		0.5374451293945313	-2.57992578125	0		-0.9109959106445312	0.3100263671875	0		-0.3771023254394531	-2.5248173828125	0		2.218035400390625	-1.2797711181640625	0		3.673933349609375	-0.7336544189453125	0		5.54310498046875	-0.38100381469726563	0		5.85027978515625	0.2548552551269531	0		-0.49906439208984377	5.828591796875	0		
0.007455881118774414	-0.014537075996398925	0		0.54389013671875	-2.573371826171875	0		-0.942682373046875	0.3138625183105469	0		-0.390508544921875	-2.50112109375	0		2.22155615234375	-1.2591292724609375	0		3.674248779296875	-0.733931640625	0		5.53343408203125	-0.3781498107910156	0		5.845578125	0.27711181640625	0		-0.46494793701171877	5.83286083984375	0		
-2.4764999747276306E-5	0.006082077026367188	0		0.5623922119140625	-2.565960205078125	0		-0.8644074096679687	0.3076904602050781	0		-0.36179864501953124	-2.469833984375	0		2.215009033203125	-1.25143359375	0		3.67172509765625	-0.7212156982421875	0		5.5160380859375	-0.3492582702636719	0		5.84581884765625	0.2767208557128906	0		-0.4789247436523438	5.822515625	0		
-0.006707510948181152	-0.0013419469594955443	0		0.5509351196289063	-2.559318359375	0		-0.9059959106445312	0.31253756713867187	0		-0.4040309753417969	-2.436959228515625	0		2.218472412109375	-1.2478568115234374	0		3.675176025390625	-0.7165806274414063	0		5.5164306640625	-0.34955099487304686	0		5.846091796875	0.27628717041015627	0		-0.34460076904296877	5.841837890625	0		
-0.006285276889801026	-0.0018590539693832397	0		0.5774376220703125	-2.563038330078125	0		-0.8736229248046875	0.30770428466796873	0		-0.37036843872070313	-2.42178076171875	0		2.206078125	-1.23316796875	0		3.66665478515625	-0.713864990234375	0		5.5128154296875	-0.35583062744140626	0		5.85423486328125	0.27392340087890626	0		-0.49367935180664063	5.81260498046875	0		
-0.0058191452026367186	-0.0024037179946899416	0		0.5301046142578125	-2.55314208984375	0		-0.9351766967773437	0.3066586608886719	0		-0.4246294250488281	-2.40286572265625	0		2.17568603515625	-1.2233472900390625	0		3.65620458984375	-0.7081533203125	0		5.51734912109375	-0.3501985778808594	0		5.85457080078125	0.2734281005859375	0		-0.49834701538085935	5.82608154296875	0		
0.0017524620294570924	0.003967469930648804	0		0.5357933349609375	-2.54672900390625	0		-0.889612060546875	0.31365972900390626	0		-0.3878453369140625	-2.38476416015625	0		2.18433935546875	-1.213884765625	0		3.6768251953125	-0.6997261962890625	0		5.5288759765625	-0.35064028930664065	0		5.8543486328125	0.3075257873535156	0		-0.496137451171875	5.8214736328125	0		
0.006337006092071534	0.006345625877380371	0		0.5364752197265625	-2.547290771484375	0		-0.8850338745117188	0.316994873046875	0		-0.3790944213867187	-2.376439208984375	0		2.210973388671875	-1.21258984375	0		3.64146240234375	-0.6948282470703125	0		5.5135556640625	-0.33885845947265625	0		5.85475048828125	0.3069994201660156	0		-0.3446844482421875	5.8405673828125	0		
-0.004138864994049072	-0.004163637161254883	0		0.5782210693359375	-2.54721630859375	0		-0.8524760131835938	0.31207379150390624	0		-0.3731600341796875	-2.353105712890625	0		2.192832275390625	-1.1909200439453125	0		3.6331328125	-0.6921701049804687	0		5.5211220703125	-0.34627658081054685	0		5.85940625	0.289084716796875	0		-0.47953778076171877	5.82109716796875	0		
0.0035815460681915285	0.0021597909927368163	0		0.5270630493164062	-2.5423623046875	0		-0.8878302612304687	0.3117159423828125	0		-0.40432919311523435	-2.3484716796875	0		2.193557373046875	-1.1914193115234375	0		3.62388232421875	-0.6865076904296875	0		5.5218017578125	-0.3466349182128906	0		5.86280712890625	0.30926422119140623	0		-0.35909994506835935	5.8304384765625	0		
-0.0027623469829559325	-0.005408180236816406	0		0.5388695068359375	-2.54905224609375	0		-0.883099365234375	0.315005126953125	0		-0.4204653625488281	-2.346978759765625	0		2.163424072265625	-1.181663330078125	0		3.655642822265625	-0.686192626953125	0		5.51948583984375	-0.3529665832519531	0		5.8669462890625	0.3259766235351563	0		-0.4987572937011719	5.82496826171875	0		
0.009091111183166503	0.0038647699356079103	0		0.5079132690429687	-2.53438916015625	0		-0.9143130493164062	0.31858645629882815	0		-0.4214176025390625	-2.330621826171875	0		2.205302734375	-1.1775155029296875	0		3.622553955078125	-0.6743324584960938	0		5.51741015625	-0.3372981262207031	0		5.8724140625	0.30287799072265625	0		-0.47935809326171874	5.820146484375	0		
0.009917013168334961	0.0032263660430908205	0		0.5348713989257813	-2.537213623046875	0		-0.8765069580078125	0.3175868225097656	0		-0.4524114685058594	-2.326020263671875	0		2.14629150390625	-1.1665272216796876	0		3.65040234375	-0.6769815063476563	0		5.5052314453125	-0.3405450439453125	0		5.8651611328125	0.30253277587890626	0		-0.47985861206054686	5.8214873046875	0		
0.006773942947387695	-3.802990019321442E-4	0		0.5338880615234375	-2.539805419921875	0		-0.84467822265625	0.3126391906738281	0		-0.38344271850585937	-2.333247314453125	0		2.194274169921875	-1.163426513671875	0		3.6413740234375	-0.6713219604492188	0		5.50613330078125	-0.340898681640625	0		5.8559609375	0.34721112060546877	0		-0.34614761352539064	5.84172265625	0		
0.00467610502243042	-0.004994329929351807	0		0.533949951171875	-2.543404296875	0		-0.8847199096679688	0.3172845458984375	0		-0.4562190856933594	-2.315304931640625	0		2.1592958984375	-1.1616405029296875	0		3.6293330078125	-0.6736372680664062	0		5.51403125	-0.3483077392578125	0		5.85663037109375	0.3467130126953125	0		-0.47972885131835935	5.82115869140625	0		
